<?xml version="1.0" encoding="utf-8"?>
<!-- Generator: Adobe Illustrator 21.0.0, SVG Export Plug-In . SVG Version: 6.00 Build 0)  -->
<svg version="1.1" id="Layer_1" xmlns="http://www.w3.org/2000/svg" xmlns:xlink="http://www.w3.org/1999/xlink" x="0px" y="0px"
	 viewBox="0 0 597.8 597.8" style="enable-background:new 0 0 597.8 597.8;" xml:space="preserve">
<style type="text/css">
	.st0{fill:none;stroke:#000000;stroke-width:2.5;stroke-miterlimit:10;}
</style>
<g>
	<circle class="st0" cx="298.9" cy="298.9" r="297.6"/>
	<circle class="st0" cx="298.9" cy="298.9" r="237.5"/>
	<g>
		<path d="M311.1,114.3c3.1,0,5.6,0.8,6.5,2.5s0.6,4.2-0.8,7.1l-11.9,20.3c-1.7,2.8-3.7,4.2-5.6,4.2c-2,0-4-1.7-5.6-4.2l-11.9-20.3
			c-1.7-2.8-2-5.4-0.8-7.1c0.8-1.7,3.4-2.5,6.5-2.5H311.1 M311.1,111.5h-24.3c-8.7,0-12.4,6.2-7.9,13.8l11.9,20.3
			c2.3,3.7,5.1,5.6,8.2,5.6c2.8,0,5.9-2,8.2-5.6l11.9-20.3C323.2,117.7,319.8,111.5,311.1,111.5L311.1,111.5z"/>
		<path d="M298.9,91.5c-8.7,0-16.1,3.7-16.1,7.9v16.1H315V99.4C315,95.2,307.7,91.5,298.9,91.5z M298.9,107.6c-2.3,0-4-1.7-4-4
			c0-2.3,1.7-4,4-4s4,1.7,4,4C302.9,105.9,301.2,107.6,298.9,107.6z"/>
	</g>
</g>
</svg>
