<?xml version="1.0" encoding="utf-8"?>
<!-- Generator: Adobe Illustrator 21.0.0, SVG Export Plug-In . SVG Version: 6.00 Build 0)  -->
<svg version="1.1" id="Layer_1" xmlns="http://www.w3.org/2000/svg" xmlns:xlink="http://www.w3.org/1999/xlink" x="0px" y="0px"
	 viewBox="0 0 845.4 845.4" style="enable-background:new 0 0 845.4 845.4;" xml:space="preserve" width="2000">
<style type="text/css">
	.st0{fill:none;stroke:#000000;stroke-width:2.5;stroke-miterlimit:10;}
</style>
<g>
	
		<rect x="125.1" y="125.1" transform="matrix(0.7071 -0.7071 0.7071 0.7071 -175.0917 422.7088)" class="st0" width="595.3" height="595.3"/>
	
		<rect x="185.1" y="185.2" transform="matrix(0.7071 -0.7071 0.7071 0.7071 -175.1124 422.6588)" class="st0" width="475" height="475"/>
	<line class="st0" x1="843.6" y1="422.7" x2="758.5" y2="422.7"/>
	<line class="st0" x1="422.7" y1="843.6" x2="422.6" y2="758.6"/>
	<line class="st0" x1="1.8" y1="422.7" x2="86.8" y2="422.7"/>
	<line class="st0" x1="422.7" y1="1.8" x2="422.6" y2="86.8"/>
	<g>
		<path d="M434.8,169.9c3.1,0,5.6,0.8,6.5,2.5c0.8,1.7,0.6,4.2-0.8,7.1l-11.9,20.3c-1.7,2.8-3.7,4.2-5.6,4.2c-2,0-4-1.7-5.6-4.2
			l-11.9-20.3c-1.7-2.8-2-5.4-0.8-7.1c0.8-1.7,3.4-2.5,6.5-2.5H434.8 M434.8,167.1h-24.3c-8.7,0-12.4,6.2-7.9,13.8l11.9,20.3
			c2.3,3.7,5.1,5.6,8.2,5.6c2.8,0,5.9-2,8.2-5.6l11.9-20.3C447,173.3,443.6,167.1,434.8,167.1L434.8,167.1z"/>
		<path d="M422.7,147c-8.7,0-16.1,3.7-16.1,7.9V171h32.2v-16.1C438.8,150.7,431.4,147,422.7,147z M422.7,163.1c-2.3,0-4-1.7-4-4
			c0-2.3,1.7-4,4-4s4,1.7,4,4C426.7,161.4,425,163.1,422.7,163.1z"/>
	</g>
</g>
</svg>
