<svg id="Layer_1" data-name="Layer 1" xmlns="http://www.w3.org/2000/svg" viewBox="0 0 796.3 597.7"><defs><style>.cls-1{fill:none;stroke:#000;stroke-miterlimit:10;stroke-width:2.5px;}</style></defs><title>oval_landscape_back</title><ellipse class="cls-1" cx="398.15" cy="298.85" rx="396.9" ry="297.6"/><ellipse class="cls-1" cx="398.15" cy="298.85" rx="336.7" ry="237.4"/><path d="M410.35,114.41c3.1,0,5.64.85,6.49,2.54s.56,4.23-.85,7.05l-11.85,20.32c-1.69,2.82-3.67,4.23-5.64,4.23s-4-1.69-5.64-4.23L381,124c-1.69-2.82-2-5.36-.85-7.05.85-1.69,3.39-2.54,6.49-2.54h23.7m0-2.82H386.08c-8.75,0-12.42,6.21-7.9,13.83L390,145.73c2.26,3.67,5.08,5.64,8.18,5.64,2.82,0,5.93-2,8.18-5.64l11.85-20.32c4.23-7.62.85-13.83-7.9-13.83Z"/><path d="M398.21,91.55c-8.75,0-16.08,3.67-16.08,7.9v16.08H414.3V99.45C414.3,95.22,407,91.55,398.21,91.55Zm0,16.08a4,4,0,1,1,4-4A3.86,3.86,0,0,1,398.21,107.63Z"/><path d="M681.89,311c0,3.1-.85,5.64-2.54,6.49s-4.23.56-7.05-.85L652,304.84c-2.82-1.69-4.23-3.67-4.23-5.64s1.69-4,4.23-5.64L672.3,281.7c2.82-1.69,5.36-2,7.05-.85,1.69.85,2.54,3.39,2.54,6.49V311m2.82,0V286.78c0-8.75-6.21-12.42-13.83-7.9l-20.32,11.85c-3.67,2.26-5.64,5.08-5.64,8.18,0,2.82,2,5.93,5.64,8.18l20.32,11.85c7.62,4.23,13.83.85,13.83-7.9Z"/><path d="M704.75,298.91c0-8.75-3.67-16.08-7.9-16.08H680.76V315h16.08C701.08,315,704.75,307.66,704.75,298.91Zm-16.08,0a4,4,0,1,1,4,4A3.86,3.86,0,0,1,688.67,298.91Z"/></svg>