<?xml version="1.0" encoding="utf-8"?>
<!-- Generator: Adobe Illustrator 21.0.0, SVG Export Plug-In . SVG Version: 6.00 Build 0)  -->
<svg version="1.1" id="Layer_1" xmlns="http://www.w3.org/2000/svg" xmlns:xlink="http://www.w3.org/1999/xlink" x="0px" y="0px"
	 viewBox="0 0 597.8 796.2" style="enable-background:new 0 0 597.8 796.2;" xml:space="preserve">
<style type="text/css">
	.st0{fill:none;stroke:#000000;stroke-width:2.5;stroke-miterlimit:10;}
</style>
<g>
	<rect x="1.3" y="1.3" class="st0" width="595.3" height="793.7"/>
	<rect x="61.4" y="61.4" class="st0" width="475" height="673.4"/>
	<line class="st0" x1="1.3" y1="1.3" x2="61.4" y2="61.4"/>
	<line class="st0" x1="596.5" y1="1.3" x2="536.4" y2="61.4"/>
	<line class="st0" x1="596.5" y1="794.9" x2="536.4" y2="734.8"/>
	<line class="st0" x1="1.3" y1="794.9" x2="61.4" y2="734.8"/>
	<g>
		<path d="M311.1,114.4c3.1,0,5.6,0.8,6.5,2.5c0.8,1.7,0.6,4.2-0.8,7.1l-11.9,20.3c-1.7,2.8-3.7,4.2-5.6,4.2c-2,0-4-1.7-5.6-4.2
			L281.8,124c-1.7-2.8-2-5.4-0.8-7.1c0.8-1.7,3.4-2.5,6.5-2.5H311.1 M311.1,111.6h-24.3c-8.7,0-12.4,6.2-7.9,13.8l11.9,20.3
			c2.3,3.7,5.1,5.6,8.2,5.6c2.8,0,5.9-2,8.2-5.6l11.9-20.3C323.3,117.8,319.9,111.6,311.1,111.6L311.1,111.6z"/>
		<path d="M299,91.5c-8.7,0-16.1,3.7-16.1,7.9v16.1h32.2V99.5C315.1,95.2,307.8,91.5,299,91.5z M299,107.6c-2.3,0-4-1.7-4-4
			c0-2.3,1.7-4,4-4s4,1.7,4,4C303,105.9,301.3,107.6,299,107.6z"/>
	</g>
	<g>
		<path d="M114.4,386c0-3.1,0.8-5.6,2.5-6.5c1.7-0.8,4.2-0.6,7.1,0.8l20.3,11.9c2.8,1.7,4.2,3.7,4.2,5.6s-1.7,4-4.2,5.6L124,415.3
			c-2.8,1.7-5.4,2-7.1,0.8c-1.7-0.8-2.5-3.4-2.5-6.5V386 M111.6,386v24.3c0,8.7,6.2,12.4,13.8,7.9l20.3-11.9
			c3.7-2.3,5.6-5.1,5.6-8.2c0-2.8-2-5.9-5.6-8.2l-20.3-11.9C117.8,373.8,111.6,377.2,111.6,386L111.6,386z"/>
		<path d="M91.5,398.1c0,8.7,3.7,16.1,7.9,16.1h16.1V382H99.5C95.2,382,91.5,389.3,91.5,398.1z M107.6,398.1c0,2.3-1.7,4-4,4
			c-2.3,0-4-1.7-4-4c0-2.3,1.7-4,4-4C105.9,394.1,107.6,395.8,107.6,398.1z"/>
	</g>
</g>
</svg>
