<?xml version="1.0" encoding="utf-8"?>
<!-- Generator: Adobe Illustrator 21.0.0, SVG Export Plug-In . SVG Version: 6.00 Build 0)  -->
<svg version="1.1" id="Layer_1" xmlns="http://www.w3.org/2000/svg" xmlns:xlink="http://www.w3.org/1999/xlink" x="0px" y="0px"
	 viewBox="0 0 796.2 597.8" style="enable-background:new 0 0 796.2 597.8;" xml:space="preserve" width="2000">
<style type="text/css">
	.st0{fill:none;stroke:#000000;stroke-width:2.5;stroke-miterlimit:10;}
</style>
<g>
	<rect x="1.3" y="1.3" class="st0" width="793.7" height="595.3"/>
	<rect x="61.4" y="61.4" class="st0" width="673.4" height="475"/>
	<line class="st0" x1="795" y1="1.3" x2="734.8" y2="61.4"/>
	<line class="st0" x1="795" y1="596.5" x2="734.8" y2="536.4"/>
	<line class="st0" x1="1.3" y1="596.5" x2="61.4" y2="536.4"/>
	<line class="st0" x1="1.3" y1="1.3" x2="61.4" y2="61.4"/>
	<g>
		<path d="M681.8,311.1c0,3.1-0.8,5.6-2.5,6.5c-1.7,0.8-4.2,0.6-7.1-0.8l-20.3-11.9c-2.8-1.7-4.2-3.7-4.2-5.6c0-2,1.7-4,4.2-5.6
			l20.3-11.9c2.8-1.7,5.4-2,7.1-0.8c1.7,0.8,2.5,3.4,2.5,6.5V311.1 M684.6,311.1v-24.3c0-8.7-6.2-12.4-13.8-7.9l-20.3,11.9
			c-3.7,2.3-5.6,5.1-5.6,8.2c0,2.8,2,5.9,5.6,8.2l20.3,11.9C678.4,323.3,684.6,319.9,684.6,311.1L684.6,311.1z"/>
		<path d="M704.7,299c0-8.7-3.7-16.1-7.9-16.1h-16.1v32.2h16.1C701,315.1,704.7,307.8,704.7,299z M688.6,299c0-2.3,1.7-4,4-4
			s4,1.7,4,4s-1.7,4-4,4C690.3,303,688.6,301.3,688.6,299z"/>
	</g>
	<g>
		<path d="M410.2,114.4c3.1,0,5.6,0.8,6.5,2.5c0.8,1.7,0.6,4.2-0.8,7.1L404,144.3c-1.7,2.8-3.7,4.2-5.6,4.2c-2,0-4-1.7-5.6-4.2
			L380.9,124c-1.7-2.8-2-5.4-0.8-7.1c0.8-1.7,3.4-2.5,6.5-2.5H410.2 M410.2,111.6H386c-8.7,0-12.4,6.2-7.9,13.8l11.9,20.3
			c2.3,3.7,5.1,5.6,8.2,5.6c2.8,0,5.9-2,8.2-5.6l11.9-20.3C422.4,117.8,419,111.6,410.2,111.6L410.2,111.6z"/>
		<path d="M398.1,91.5c-8.7,0-16.1,3.7-16.1,7.9v16.1h32.2V99.5C414.2,95.2,406.9,91.5,398.1,91.5z M398.1,107.6c-2.3,0-4-1.7-4-4
			c0-2.3,1.7-4,4-4s4,1.7,4,4C402.1,105.9,400.4,107.6,398.1,107.6z"/>
	</g>
</g>
</svg>
